<?xml version="1.0" ?><!DOCTYPE svg  PUBLIC '-//W3C//DTD SVG 1.1//EN'  'http://www.w3.org/Graphics/SVG/1.1/DTD/svg11.dtd'><svg enable-background="new 0 0 32 32" version="1.1" viewBox="0 0 32 32" xml:space="preserve" xmlns="http://www.w3.org/2000/svg" xmlns:xlink="http://www.w3.org/1999/xlink"><g id="GUIDE"/><g id="Layer_2"/><g id="Layer_3"/><g id="Layer_4"/><g id="Layer_5"/><g id="Layer_6"/><g id="Layer_7"/><g id="Layer_8"/><g id="Layer_9"/><g id="Layer_10"/><g id="Layer_11"/><g id="Layer_12"/><g id="Layer_13"/><g id="Layer_14"/><g id="Layer_15"/><g id="Layer_16"/><g id="Layer_17"/><g id="Layer_18"/><g id="Layer_19"/><g id="Layer_20"/><g id="Layer_21"/><g id="Layer_22"/><g id="Layer_23"/><g id="Layer_24"/><g id="Layer_25"/><g id="Layer_26"/><g id="Layer_27"/><g id="Layer_28"/><g id="Layer_29"/><g id="Layer_31"/><g id="Layer_30"><path d="M1,1v14v2v5v2v7h7h2h5h2h5h2h7v-7v-2v-5v-2V1H1z M3,17h5v5H3V17z M15,22h-5v-5h5V22z M17,17h5v5h-5V17z M3,29v-5h5v5H3z    M10,29v-5h5v5H10z M17,29v-5h5v5H17z M29,29h-5v-5h5V29z M29,22h-5v-5h5V22z M24,15h-2h-5h-2h-5H8H3V3h26v12H24z"/></g></svg>